<svg width="45" height="44" fill="none" xmlns="http://www.w3.org/2000/svg"><circle cx="29.75" cy="22.75" r=".75" fill="#000"/><circle cx="29.75" cy="22.75" r=".75" fill="#000"/><circle cx="30.75" cy="19.75" r=".75" fill="#000"/><circle cx="30.75" cy="19.75" r=".75" fill="#000"/><path d="M31.488 26.68c2.705-.724 2.734-3.32 2.44-6.347-.233-2.41-1.533-8.801-2.054-11.306a.992.992 0 00-1.233-.754L26.83 9.294m4.658 17.387c-2.704.724-4.027-1.51-5.287-4.277-.468-1.03-1.169-2.927-1.864-4.904m7.151 9.18l2.33 8.694M24.5 18.5h9m.318 16.874l-3.864 1.035m3.864-1.035l3.863-1.035M14.16 26.68c2.704.724 4.028-1.51 5.287-4.277 1.003-2.205 3.072-8.39 3.874-10.819a.992.992 0 00-.69-1.27l-7.624-2.042a.992.992 0 00-1.233.754c-.52 2.505-1.82 8.896-2.054 11.306-.294 3.027-.265 5.623 2.44 6.348zm0 0l-2.33 8.693M12.5 18.5h8m-8.67 16.874L7.966 34.34m3.863 1.035l3.864 1.035" stroke="#000" stroke-width="1.5"/></svg>