<svg width="40" height="40" fill="none" xmlns="http://www.w3.org/2000/svg"><path fill-rule="evenodd" clip-rule="evenodd" d="M11.5 3.885h-.75v4.923a3.74 3.74 0 00-2 3.312v17.965c0 2.07 1.68 3.744 3.75 3.744h14c2.07 0 3.75-1.675 3.75-3.744V12.12a3.74 3.74 0 00-2-3.312V3.885H11.5zm15.25 4.499v-3h-2.5v2.992h2.25c.084 0 .167.003.25.008zm-4-.008V5.385h-2.5v2.99h2.5zm-4 0V5.385h-2.5v2.99h2.5zm-4 0V5.385h-2.5v2.999c.083-.005.166-.008.25-.008h2.25zm-4.5 3.744a2.247 2.247 0 012.25-2.244h14a2.247 2.247 0 012.25 2.244v17.965a2.247 2.247 0 01-2.25 2.244h-14a2.247 2.247 0 01-2.25-2.244v-3.741H20.5c.69 0 1.25-.56 1.25-1.25v-6.985c0-.69-.56-1.25-1.25-1.25h-3.429c-.11-.32-.29-.74-.572-1.163-.607-.91-1.696-1.83-3.499-1.83-1.065 0-2.005.315-2.75.895V12.12zm10 12.724h-10v-2.492h7.25v-1.5h-7.25v-3.61c.459-1.212 1.43-1.877 2.75-1.877 1.197 0 1.858.576 2.251 1.164a3.605 3.605 0 01.507 1.194l.003.013.104.623h4.385v6.485z" fill="#000"/></svg>