<svg width="40" height="40" fill="none" xmlns="http://www.w3.org/2000/svg"><path d="M27.5 23.5s-2.883 2.98-3.5 5c-.628 2.054 0 5.5 0 5.5h-8s.628-3.446 0-5.5c-.617-2.02-3.5-5-3.5-5m2.5-4a4.49 4.49 0 00-.315-1.658 4.511 4.511 0 002.904-2.46A4.978 4.978 0 0020 16a4.97 4.97 0 002.411-.619 4.511 4.511 0 002.904 2.461A4.49 4.49 0 0025 19.5m-10 0a4.5 4.5 0 11-5.685-4.342 4.5 4.5 0 015.959-5.794 5.002 5.002 0 019.452 0 4.5 4.5 0 015.959 5.794A4.502 4.502 0 0129.5 24a4.5 4.5 0 01-4.5-4.5m-10 0s1.5 2 5 2 5-2 5-2M14 15s.398-1.061 1-1.5c.602-.439 1.5-.5 1.5-.5m7.5.175s1.092.303 1.581.865c.49.561.63 1.45.63 1.45M15.5 20s1.621 1.938 2.5 3.5c.726 1.29 1.616 3.517 1.905 4.255a.101.101 0 00.189 0c.282-.732 1.15-2.929 1.906-4.255.891-1.564 2.5-3.5 2.5-3.5" stroke="#000" stroke-width="1.5"/></svg>