<svg width="40" height="40" fill="none" xmlns="http://www.w3.org/2000/svg"><path fill-rule="evenodd" clip-rule="evenodd" d="M10.5 7a1 1 0 01.952.694c1.712.246 2.954 1.142 3.795 2.193a7.313 7.313 0 011.39 2.878H18v1.5H3v-1.5h1.327c.17-.891.625-1.96 1.38-2.884.856-1.049 2.124-1.943 3.84-2.187A1 1 0 0110.5 7zm-.75 10.963V18h1.5v-.037h16.5V18h1.5v-.037h7v6.482l-.005.007c-.097.116-.24.272-.42.425-.371.318-.828.569-1.325.569-.41 0-.791-.17-1.128-.413a3.527 3.527 0 01-.69-.673.863.863 0 00-1.363 0c-.113.145-.356.43-.691.673-.337.244-.719.413-1.128.413-.41 0-.791-.17-1.128-.413a3.527 3.527 0 01-.69-.673.863.863 0 00-1.363 0c-.113.145-.356.43-.691.673-.337.244-.719.413-1.128.413-.408 0-.789-.168-1.124-.41a3.528 3.528 0 01-.692-.673.864.864 0 00-1.375.016c-.25.338-.915 1.067-1.809 1.067-.41 0-.791-.17-1.128-.413a3.527 3.527 0 01-.69-.673.863.863 0 00-1.363 0c-.113.145-.356.43-.691.673-.337.244-.719.413-1.128.413-.41 0-.791-.17-1.128-.413a3.527 3.527 0 01-.69-.673.863.863 0 00-1.363 0c-.113.145-.356.43-.691.673-.337.244-.719.413-1.128.413-.41 0-.792-.17-1.128-.413a3.53 3.53 0 01-.69-.673.863.863 0 00-1.363 0 3.53 3.53 0 01-.691.673c-.336.244-.719.413-1.128.413-.497 0-.954-.251-1.325-.569a3.615 3.615 0 01-.42-.425l-.005-.007v-6.482h7zm1.5-1.5h16.5V14.5h1.5v1.963h8.5v8.463l-.126.19-.624-.417c.624.416.623.416.623.417v.001l-.002.003-.005.006-.014.02a4.476 4.476 0 01-.206.267 5.115 5.115 0 01-.596.604c-.504.431-1.297.929-2.3.929-.694 0-1.287-.239-1.75-.525v5.763h-1.5v-5.763c-.463.286-1.056.525-1.75.525-.83 0-1.517-.342-2.008-.698a4.785 4.785 0 01-.492-.412 4.785 4.785 0 01-.492.412c-.491.356-1.178.698-2.008.698-.827 0-1.512-.34-2.003-.694a4.768 4.768 0 01-.487-.406c-.52.503-1.373 1.1-2.51 1.1-.83 0-1.517-.342-2.008-.698a4.785 4.785 0 01-.492-.412 4.785 4.785 0 01-.492.412c-.491.356-1.178.698-2.008.698-.83 0-1.517-.342-2.008-.698a4.785 4.785 0 01-.492-.412 4.785 4.785 0 01-.492.412c-.491.356-1.178.698-2.008.698-.694 0-1.287-.239-1.75-.525v5.763h-1.5v-5.763c-.463.286-1.056.525-1.75.525-1.003 0-1.796-.498-2.3-.929a5.12 5.12 0 01-.802-.87l-.014-.02-.005-.007-.001-.003h-.001v-.001L2 24.699l-.624.416-.126-.189v-8.463h8.5V14.5h1.5v1.963zm-5.385-3.698h9.222a5.84 5.84 0 00-1.01-1.94c-.752-.94-1.89-1.697-3.577-1.697-1.691 0-2.864.761-3.631 1.701a5.329 5.329 0 00-1.004 1.936zm23.587-5.07a1 1 0 00-1.904-.001c-1.717.244-2.985 1.138-3.841 2.187-.755.924-1.21 1.993-1.38 2.884H21v1.5h15v-1.5h-1.363a7.313 7.313 0 00-1.39-2.878c-.84-1.05-2.083-1.947-3.795-2.193zm3.635 5.07h-9.222a5.327 5.327 0 011.004-1.936c.767-.94 1.94-1.701 3.631-1.701 1.687 0 2.825.757 3.576 1.696a5.84 5.84 0 011.01 1.94z" fill="#000"/></svg>