<svg width="551" height="647" fill="none" xmlns="http://www.w3.org/2000/svg"><path fill-rule="evenodd" clip-rule="evenodd" d="M317.487 0L212.39 105.387 188 130v517h175V130l-24.493-24.613-38.536-38.642-10.51-10.539 28.026-28.103 17.517 17.565-10.51 10.538 10.51 10.539 24.522-24.59L317.487 0zM24.39 152.49L129.487 47.103l42.039 42.155-24.522 24.591-10.51-10.539 10.51-10.539-17.517-17.564-28.025 28.103 10.509 10.539 38.536 38.641 24.39 24.51H175v386H0V177l24.39-24.51zM376 601V173l24.39-24.613L505.487 43l42.039 42.155-24.522 24.59-10.51-10.539 10.51-10.538-17.517-17.565-28.026 28.103 10.51 10.539 38.536 38.642L551 173v428H376z" fill="#333"/></svg>